<svg width="1362" height="280" viewBox="0 0 1362 280" fill="none" xmlns="http://www.w3.org/2000/svg">
<path d="M105.361 63.5576L78.8461 15.0195C65.72 21.4182 53.602 29.7672 43.1055 39.6721L81.3443 75.5223L105.361 63.5576Z" fill="#2493FB"/>
<path d="M55.5946 92.9099C56.9094 91.9457 16.5012 74.3274 16.5669 73.8672C9.55468 86.6208 4.62417 100.404 1.97266 114.648L56.6903 122.208C54.1264 104.984 55.5508 93.2167 55.5946 92.9099Z" fill="#2493FB"/>
<path d="M137.691 47.4416C139.006 46.7842 140.474 46.4336 141.964 46.3897C143.454 46.3678 144.922 46.6527 146.281 47.2663L155.331 51.2764L162.278 1.13866C159.516 0.788044 156.712 0.525084 153.929 0.327864C153.819 0.327864 153.731 0.327864 153.622 0.327864C153.556 0.327864 153.512 0.327864 153.446 0.327864C153.446 0.327864 153.446 0.327864 153.425 0.327864C153.337 0.327864 153.227 0.327864 153.14 0.327864C153.14 0.327864 153.118 0.327864 153.096 0.327864C153.052 0.327864 153.008 0.327864 152.942 0.327864C152.942 0.327864 152.921 0.327864 152.899 0.327864C152.877 0.327864 152.833 0.327864 152.811 0.327864C152.811 0.327864 152.767 0.327864 152.745 0.327864C152.701 0.327864 152.658 0.327864 152.614 0.327864C152.614 0.327864 152.57 0.327864 152.548 0.327864C152.526 0.327864 152.504 0.327864 152.46 0.327864C152.417 0.327864 152.395 0.327864 152.351 0.327864C152.351 0.327864 152.307 0.327864 152.285 0.327864C152.263 0.327864 152.219 0.327864 152.197 0.327864C152.175 0.327864 152.132 0.327864 152.11 0.327864C152.088 0.327864 152.044 0.327864 152.022 0.327864C152.022 0.327864 151.978 0.327864 151.956 0.327864C151.913 0.327864 151.869 0.327864 151.825 0.327864C151.825 0.327864 151.781 0.327864 151.759 0.327864C151.737 0.327864 151.693 0.327864 151.671 0.327864C151.671 0.327864 151.628 0.327864 151.606 0.327864C151.562 0.327864 151.518 0.327864 151.496 0.327864C151.496 0.327864 151.452 0.327864 151.43 0.327864C151.387 0.327864 151.343 0.327864 151.299 0.327864C151.299 0.327864 151.277 0.327864 151.255 0.327864C151.211 0.327864 151.189 0.327864 151.146 0.327864C151.146 0.327864 151.124 0.327864 151.102 0.327864C151.058 0.327864 151.014 0.327864 150.97 0.327864C150.97 0.327864 150.948 0.327864 150.926 0.327864C150.883 0.327864 150.839 0.327864 150.795 0.327864C150.751 0.327864 150.707 0.327864 150.642 0.327864C150.642 0.327864 150.642 0.327864 150.62 0.327864C150.576 0.327864 150.51 0.327864 150.466 0.327864C150.466 0.327864 150.466 0.327864 150.444 0.327864C150.401 0.327864 150.357 0.327864 150.291 0.327864C150.247 0.327864 150.181 0.327864 150.138 0.327864C150.138 0.327864 150.138 0.327864 150.116 0.327864C150.072 0.327864 150.006 0.327864 149.962 0.327864C149.962 0.327864 149.853 0.327864 149.809 0.327864C149.765 0.327864 149.699 0.327864 149.655 0.327864C149.546 0.327864 149.436 0.327864 149.327 0.327864C149.151 0.327864 148.998 0.327864 148.823 0.327864C142.534 0.130644 136.201 0.327864 129.868 0.919524C129.758 0.919524 129.649 0.919524 129.539 0.941438C129.473 0.941438 129.429 0.941438 129.364 0.941438C129.254 0.941438 129.145 0.941438 129.035 0.985264C128.925 0.985264 128.816 1.00718 128.706 1.02909C128.662 1.02909 128.597 1.02909 128.553 1.02909C128.553 1.02909 128.553 1.02909 128.531 1.02909C128.487 1.02909 128.421 1.02909 128.378 1.02909C128.334 1.02909 128.29 1.02909 128.246 1.02909C128.246 1.02909 128.224 1.02909 128.202 1.02909C128.158 1.02909 128.115 1.02909 128.049 1.02909C128.049 1.02909 128.049 1.02909 128.027 1.02909C127.983 1.02909 127.939 1.02909 127.895 1.02909C127.895 1.02909 127.895 1.02909 127.874 1.02909C127.83 1.02909 127.786 1.02909 127.742 1.02909C127.742 1.02909 127.72 1.02909 127.698 1.02909C127.654 1.02909 127.611 1.02909 127.567 1.02909C127.567 1.02909 127.545 1.02909 127.523 1.02909C127.479 1.02909 127.457 1.02909 127.413 1.02909H127.37C127.326 1.02909 127.282 1.02909 127.238 1.02909C127.216 1.02909 127.194 1.02909 127.172 1.02909C127.129 1.02909 127.107 1.02909 127.085 1.02909C127.063 1.02909 127.019 1.02909 126.997 1.02909C126.975 1.02909 126.931 1.02909 126.909 1.02909C126.887 1.02909 126.866 1.02909 126.844 1.02909C126.8 1.02909 126.756 1.02909 126.712 1.02909C126.69 1.02909 126.668 1.02909 126.646 1.02909C126.625 1.02909 126.603 1.02909 126.559 1.02909C126.515 1.02909 126.493 1.02909 126.471 1.02909C126.449 1.02909 126.405 1.02909 126.383 1.02909C126.362 1.02909 126.34 1.02909 126.318 1.02909C126.296 1.02909 126.274 1.02909 126.252 1.02909C126.208 1.02909 126.186 1.02909 126.142 1.02909C126.142 1.02909 126.099 1.02909 126.077 1.02909C126.055 1.02909 126.033 1.02909 125.989 1.02909C125.945 1.02909 125.923 1.02909 125.879 1.02909C125.858 1.02909 125.836 1.02909 125.792 1.02909H125.748C125.704 1.02909 125.66 1.02909 125.617 1.02909C125.617 1.02909 125.595 1.02909 125.573 1.02909C125.551 1.02909 125.507 1.02909 125.485 1.02909C125.485 1.02909 125.354 1.02909 125.288 1.051C125.288 1.051 125.288 1.051 125.266 1.051C125.091 1.07292 124.937 1.09483 124.762 1.11674C122.79 1.3797 120.839 1.66458 118.867 2.01519L128.487 52.0215L137.932 47.3101L137.691 47.4416Z" fill="#2493FB"/>
<path d="M240.902 36.1192C238.141 33.7088 235.292 31.4079 232.378 29.2165C232.378 29.2165 232.202 29.0851 232.115 29.0193C231.983 28.9098 231.852 28.8221 231.698 28.7125C231.567 28.603 231.435 28.5153 231.282 28.4058C231.194 28.34 231.107 28.2743 231.019 28.2085C230.975 28.1866 230.931 28.1428 230.888 28.1209C230.888 28.1209 230.8 28.0551 230.756 28.0332C230.712 28.0113 230.668 27.9675 230.625 27.9456C230.581 27.9237 230.537 27.8798 230.493 27.8579C230.493 27.8579 230.405 27.7922 230.362 27.7703C230.318 27.7484 230.274 27.7045 230.23 27.6826C230.143 27.6169 230.055 27.5511 229.967 27.5073C229.967 27.5073 229.967 27.5073 229.945 27.5073C229.901 27.4854 229.858 27.4416 229.814 27.4197C229.77 27.3977 229.748 27.3758 229.704 27.332C229.704 27.332 229.704 27.332 229.682 27.332C229.639 27.3101 229.595 27.2663 229.573 27.2443C229.573 27.2443 229.573 27.2443 229.551 27.2443C229.507 27.2224 229.463 27.1786 229.441 27.1567C229.441 27.1567 229.441 27.1567 229.419 27.1567C229.397 27.1348 229.354 27.1129 229.332 27.0909C229.332 27.0909 229.31 27.091 229.288 27.069C229.244 27.0471 229.222 27.0252 229.178 26.9814C229.178 26.9814 229.156 26.9814 229.134 26.9595C229.113 26.9376 229.069 26.9156 229.047 26.8937C229.047 26.8937 229.047 26.8937 229.025 26.8718C228.981 26.8499 228.959 26.828 228.915 26.8061C228.915 26.8061 228.893 26.8061 228.872 26.7842C228.828 26.7622 228.806 26.7403 228.762 26.7184C228.762 26.7184 228.74 26.7184 228.718 26.6965C228.696 26.6965 228.674 26.6527 228.63 26.6308C228.63 26.6308 228.609 26.6308 228.587 26.6089C228.543 26.5869 228.521 26.565 228.477 26.5431C228.477 26.5431 228.455 26.5212 228.433 26.5212C228.411 26.5212 228.368 26.4774 228.346 26.4555C228.346 26.4555 228.302 26.4335 228.302 26.4116C228.28 26.4116 228.258 26.3678 228.214 26.3678C228.214 26.3678 228.192 26.3459 228.17 26.3459C228.126 26.324 228.105 26.3021 228.061 26.2802C228.061 26.2802 228.017 26.2582 227.995 26.2363C227.973 26.2363 227.951 26.2144 227.929 26.1925C227.929 26.1925 227.885 26.1706 227.864 26.1487C227.842 26.1487 227.82 26.1048 227.776 26.0829C227.776 26.0829 227.732 26.061 227.732 26.0391C227.688 26.0172 227.666 25.9953 227.622 25.9734C227.622 25.9734 227.601 25.9515 227.579 25.9295C227.557 25.9295 227.535 25.9076 227.513 25.8857C227.513 25.8857 227.491 25.8857 227.469 25.8419C227.425 25.82 227.403 25.7981 227.36 25.7761C227.36 25.7761 227.316 25.7542 227.294 25.7323C227.272 25.7323 227.25 25.7104 227.228 25.6885C227.206 25.6666 227.162 25.6447 227.14 25.6228C227.14 25.6228 227.097 25.6008 227.075 25.5789C227.075 25.5789 227.031 25.557 227.009 25.5351C226.987 25.5351 226.943 25.4913 226.921 25.4694C226.921 25.4694 226.877 25.4474 226.856 25.4255C226.856 25.4255 226.834 25.4255 226.812 25.4036C226.79 25.3817 226.746 25.3598 226.702 25.3379C226.702 25.3379 226.68 25.3379 226.658 25.2941C226.658 25.2941 226.614 25.2502 226.593 25.2502C226.593 25.2502 226.571 25.2502 226.549 25.2283C226.505 25.2064 226.461 25.1845 226.439 25.1626C226.439 25.1626 226.417 25.1626 226.395 25.1407C226.352 25.1187 226.308 25.0749 226.264 25.053C226.264 25.053 226.264 25.053 226.242 25.053C226.22 25.053 226.198 25.0311 226.176 25.0092C226.176 25.0092 226.154 25.0092 226.132 24.9873C226.089 24.9654 226.045 24.9215 226.001 24.8996H225.979C225.891 24.8558 225.826 24.79 225.738 24.7462C225.738 24.7462 225.738 24.7462 225.716 24.7462C225.672 24.7024 225.628 24.6805 225.563 24.6367C225.475 24.5709 225.387 24.5271 225.322 24.4613C225.234 24.3956 225.146 24.3518 225.081 24.286C225.037 24.2422 224.971 24.2203 224.927 24.1765C224.839 24.1107 224.752 24.0669 224.664 24.0012C218.222 19.8157 211.45 16.1781 204.46 13.0664L179.961 62.4591L204.526 73.3719L241.099 36.4041L240.902 36.1192Z" fill="#2493FB"/>
<path d="M229.805 119.128L284.851 109.464C281.717 95.5052 276.13 81.6998 268.657 69.2969L229.98 89.3914C230.265 91.4732 231.667 102.89 229.805 119.106V119.128Z" fill="#2493FB"/>
<path d="M62.8918 147.832L1.07422 158.263C3.09025 172.506 7.71396 187.145 14.4852 200.424L72.8843 170.534C68.6331 162.777 65.368 155.129 62.8918 147.832Z" fill="#2493FB"/>
<path d="M185.461 208.92L214.168 260.658C224.642 255.026 234.087 248.342 242.458 240.782C242.458 240.782 242.633 240.629 242.721 240.541C242.808 240.475 242.896 240.388 242.962 240.322C243.006 240.278 243.049 240.256 243.093 240.213C243.137 240.169 243.181 240.147 243.203 240.103C243.247 240.059 243.29 240.037 243.334 239.993C243.378 239.95 243.422 239.928 243.466 239.884C243.466 239.884 243.553 239.818 243.575 239.774C243.575 239.774 243.575 239.774 243.597 239.752C243.641 239.709 243.685 239.687 243.707 239.643C243.707 239.643 243.773 239.577 243.816 239.533C243.816 239.533 243.816 239.533 243.838 239.511C243.882 239.467 243.904 239.446 243.948 239.402C243.97 239.38 244.014 239.336 244.036 239.314C244.036 239.314 244.036 239.314 244.057 239.292C244.101 239.27 244.123 239.226 244.167 239.205C244.167 239.205 244.189 239.183 244.211 239.161C244.233 239.139 244.255 239.117 244.298 239.095C244.298 239.095 244.298 239.095 244.342 239.051C244.386 239.029 244.408 238.985 244.452 238.963C244.452 238.963 244.474 238.942 244.496 238.92C244.518 238.92 244.54 238.876 244.561 238.854C244.561 238.854 244.605 238.81 244.627 238.788C244.649 238.788 244.671 238.744 244.693 238.722C244.693 238.722 244.715 238.701 244.737 238.679C244.759 238.657 244.781 238.635 244.824 238.613C244.846 238.591 244.868 238.569 244.89 238.547C244.89 238.547 244.934 238.503 244.956 238.503C244.956 238.503 245 238.459 245.022 238.459C245.044 238.438 245.087 238.416 245.109 238.372C245.109 238.372 245.153 238.328 245.175 238.306C245.175 238.306 245.197 238.284 245.219 238.262C245.263 238.218 245.285 238.197 245.328 238.153C245.328 238.153 245.328 238.153 245.35 238.131C245.372 238.109 245.394 238.087 245.416 238.065C245.416 238.065 245.438 238.043 245.46 238.021C245.504 237.977 245.548 237.934 245.591 237.912C245.613 237.89 245.635 237.868 245.657 237.846C245.701 237.802 245.745 237.758 245.789 237.714C245.854 237.649 245.942 237.561 246.008 237.495C246.095 237.43 246.161 237.342 246.249 237.276C247.695 235.874 249.119 234.427 250.5 232.959L202.838 188.848C197.908 195.685 192.123 202.456 185.352 209.052L185.461 208.92Z" fill="#2493FB"/>
<path d="M224.607 144.668C222.438 152.009 219.523 159.722 215.645 167.589L275.775 195.529C281.976 182.008 285.921 167.611 287.433 152.951L224.585 144.668H224.607Z" fill="#2493FB"/>
<path d="M151.628 234.578C144.221 238.983 136.661 231.598 130.372 228.552L123.359 276.849C138.786 279.018 154.783 278.755 170.188 275.972L161.379 228.398C158.267 230.502 155.024 232.562 151.628 234.578Z" fill="#2493FB"/>
<path d="M86.754 191.25L41.1523 236.764C52.0433 247.458 64.8626 256.464 78.7337 263.235L105.315 210.512C98.1709 204.288 92.0351 197.824 86.754 191.25Z" fill="#2493FB"/>
<path d="M207.584 102.12C207.408 100.98 206.948 99.8845 206.225 98.9422C205.502 98 204.538 97.2549 203.442 96.7509L145.657 70.8931C144.648 70.4549 143.553 70.2138 142.457 70.2357C141.361 70.2577 140.266 70.5206 139.302 71.0246L82.4584 99.5339C80.3328 100.608 78.8865 102.602 78.6017 104.881C78.514 105.538 70.8005 173.141 142.435 209.254C143.553 209.802 144.78 210.087 146.029 210.043C147.278 209.999 148.505 209.648 149.557 209.013C216.48 169.7 207.956 104.815 207.584 102.12ZM131.61 164.967L137.833 137.444C133.758 134.814 131.238 130.169 131.807 124.997C132.465 118.883 137.57 113.931 143.925 113.252C152.231 112.353 159.265 118.577 159.309 126.378C159.309 130.98 156.898 135.055 153.217 137.444L159.462 164.967H131.61Z" fill="#2493FB"/>
<path d="M387.418 183.782C351.782 183.782 330.909 158.158 330.909 125.406C330.909 92.6545 351.782 67.0303 387.418 67.0303C412.024 67.0303 429.673 79.4181 438.327 99.4424L417.624 116.073C414.23 101.818 404.558 90.2788 387.249 90.2788C367.394 90.2788 357.043 104.703 357.043 125.406C357.043 146.109 367.394 160.533 387.249 160.533C404.558 160.533 414.23 148.994 417.624 134.739L438.327 151.37C429.673 171.394 412.024 183.782 387.418 183.782Z" fill="#C1CDE6"/>
<path d="M490.683 184.121C465.398 184.121 449.107 166.303 449.107 140.848C449.107 115.564 465.398 97.5757 490.683 97.5757C516.646 97.5757 533.107 115.564 533.107 140.848C533.107 166.303 516.646 184.121 490.683 184.121ZM491.022 164.436C501.374 164.436 508.501 157.818 508.501 140.848C508.501 123.709 501.374 117.261 491.022 117.261C480.84 117.261 473.713 123.709 473.713 140.848C473.713 157.818 480.84 164.436 491.022 164.436Z" fill="#C1CDE6"/>
<path d="M574.145 182.424H549.878V99.2727H574.145V123.37C576.86 109.794 584.836 97.5757 601.975 97.5757C617.757 97.5757 627.429 107.248 627.429 124.388V182.424H603.163V132.873C603.163 122.691 600.448 116.412 589.417 116.412C577.878 116.412 574.145 122.861 574.145 136.436V182.424Z" fill="#C1CDE6"/>
<path d="M681.577 184.121C663.08 184.121 646.62 177.333 639.493 167.321L650.693 150.861C657.65 158.327 669.699 165.624 682.256 165.624C688.874 165.624 692.777 163.588 692.777 159.176C692.777 154.764 688.026 153.067 679.202 150.861L668.002 148.145C653.068 144.242 642.208 138.303 642.208 123.709C642.208 107.418 655.444 97.7454 675.808 97.7454C693.796 97.7454 706.862 105.551 712.632 112.848L701.771 129.139C693.626 120.655 683.444 116.073 673.771 116.073C667.832 116.073 664.268 118.279 664.268 122.351C664.268 126.764 667.832 128.461 678.862 131.515L688.196 134.061C706.523 138.982 714.499 146.109 714.499 158.836C714.499 174.958 700.923 184.121 681.577 184.121Z" fill="#C1CDE6"/>
<path d="M767.709 184.121C741.236 184.121 725.115 166.473 725.115 140.848C725.115 115.224 741.236 97.5757 765.673 97.5757C792.146 97.5757 805.382 115.224 805.382 136.945C805.382 140.509 805.043 145.261 804.533 147.127H747.855C749.382 158.836 757.188 164.436 768.049 164.436C779.758 164.436 786.036 159.345 789.091 152.218L803.855 166.982C797.576 175.976 786.376 184.121 767.709 184.121ZM765.843 116.242C755.491 116.242 749.043 122.012 747.855 133.212H783.491C782.643 122.182 776.703 116.242 765.843 116.242Z" fill="#C1CDE6"/>
<path d="M846.992 182.424H822.725V99.2727H846.992V123.37C849.707 109.794 857.683 97.5757 874.823 97.5757C890.604 97.5757 900.277 107.248 900.277 124.388V182.424H876.01V132.873C876.01 122.691 873.295 116.412 862.265 116.412C850.725 116.412 846.992 122.861 846.992 136.436V182.424Z" fill="#C1CDE6"/>
<path d="M951.181 184.121C932.854 184.121 924.199 173.261 924.199 157.818V117.77H911.811V99.2727H924.199V89.4303L948.466 76.703V99.2727H971.544V117.77H948.466V153.406C948.466 160.194 951.86 162.57 956.611 162.57C961.872 162.57 966.454 158.327 968.999 153.745L975.957 173.6C972.393 178.182 963.908 184.121 951.181 184.121Z" fill="#C1CDE6"/>
<path d="M1015.21 182.424H990.94V68.7272H1015.21V100.97L1014.53 122.351L1030.31 103.006L1061.03 68.7272H1089.53L1049.99 113.697L1091.23 182.424H1063.23L1032.86 131.345L1015.21 150.521V182.424Z" fill="#E0EAFF"/>
<path d="M1140.15 184.121C1113.67 184.121 1097.55 166.473 1097.55 140.848C1097.55 115.224 1113.67 97.5757 1138.11 97.5757C1164.58 97.5757 1177.82 115.224 1177.82 136.945C1177.82 140.509 1177.48 145.261 1176.97 147.127H1120.29C1121.82 158.836 1129.63 164.436 1140.49 164.436C1152.2 164.436 1158.47 159.345 1161.53 152.218L1176.29 166.982C1170.01 175.976 1158.81 184.121 1140.15 184.121ZM1138.28 116.242C1127.93 116.242 1121.48 122.012 1120.29 133.212H1155.93C1155.08 122.182 1149.14 116.242 1138.28 116.242Z" fill="#E0EAFF"/>
<path d="M1217.45 212.97C1204.89 212.97 1194.2 207.539 1188.43 201.6L1198.1 181.236C1203.36 187.345 1209.47 191.588 1216.77 191.588C1223.22 191.588 1226.95 189.382 1229.66 181.406L1231.36 176.994H1216.6L1189.62 99.2727H1216.43L1228.31 138.473L1234.42 166.303L1240.69 138.473L1252.4 99.2727H1279.72L1249.86 187.515C1243.41 206.012 1233.06 212.97 1217.45 212.97Z" fill="#E0EAFF"/>
<path d="M1328.68 184.121C1310.18 184.121 1293.72 177.333 1286.59 167.321L1297.79 150.861C1304.75 158.327 1316.8 165.624 1329.36 165.624C1335.98 165.624 1339.88 163.588 1339.88 159.176C1339.88 154.764 1335.13 153.067 1326.3 150.861L1315.1 148.145C1300.17 144.242 1289.31 138.303 1289.31 123.709C1289.31 107.418 1302.55 97.7454 1322.91 97.7454C1340.9 97.7454 1353.96 105.551 1359.73 112.848L1348.87 129.139C1340.73 120.655 1330.55 116.073 1320.87 116.073C1314.93 116.073 1311.37 118.279 1311.37 122.351C1311.37 126.764 1314.93 128.461 1325.96 131.515L1335.3 134.061C1353.63 138.982 1361.6 146.109 1361.6 158.836C1361.6 174.958 1348.03 184.121 1328.68 184.121Z" fill="#E0EAFF"/>
</svg>
